<svg width="24" height="24" viewBox="0 0 24 24" fill="none" xmlns="http://www.w3.org/2000/svg">
<path d="M20.5968 4.314L16.1035 3C16.1035 3.95478 15.6711 4.87045 14.9016 5.54558C14.132 6.22072 13.0883 6.6 12 6.6C10.9117 6.6 9.86796 6.22072 9.09841 5.54558C8.32886 4.87045 7.89653 3.95478 7.89653 3L3.40323 4.314C2.9389 4.44971 2.54517 4.72657 2.29309 5.09461C2.04101 5.46264 1.94719 5.89761 2.02856 6.321L2.62357 9.444C2.66263 9.65542 2.78635 9.84769 2.97251 9.98626C3.15866 10.1248 3.39504 10.2006 3.63918 10.2H5.84479V19.2C5.84479 20.19 6.76807 21 7.89653 21H16.1035C16.6476 21 17.1695 20.8104 17.5543 20.4728C17.939 20.1352 18.1552 19.6774 18.1552 19.2V10.2H20.3608C20.605 10.2006 20.8413 10.1248 21.0275 9.98626C21.2137 9.84769 21.3374 9.65542 21.3764 9.444L21.9714 6.321C22.0528 5.89761 21.959 5.46264 21.7069 5.09461C21.4548 4.72657 21.0611 4.44971 20.5968 4.314Z" stroke="#18191B" stroke-width="2" stroke-linecap="round" stroke-linejoin="round"/>
</svg>
